<?xml version="1.0" standalone="no"?>
<!DOCTYPE svg PUBLIC "-//W3C//DTD SVG 1.1//EN" "http://www.w3.org/Graphics/SVG/1.1/DTD/svg11.dtd" >
<svg xmlns="http://www.w3.org/2000/svg" xmlns:xlink="http://www.w3.org/1999/xlink" version="1.1">
<metadata>
Created by FontForge 20170731 at Tue Nov 28 18:39:15 2000
 By Aleksey,,,
Generated by Fontographer 4.1.5
</metadata>
<defs>
<font id="FuturaCondensed" horiz-adv-x="411" >
  <font-face 
    font-family="Futura"
    font-weight="400"
    font-stretch="normal"
    units-per-em="1000"
    panose-1="0 0 4 0 0 0 0 0 0 0"
    ascent="800"
    descent="-200"
    x-height="505"
    cap-height="754"
    bbox="-157 -216 1000 999"
    underline-thickness="75"
    underline-position="-261"
    unicode-range="U+0020-F002"
  />
<missing-glyph horiz-adv-x="500" 
d="M63 0v999h375v-999h-375zM125 63h250v874h-250v-874z" />
    <glyph glyph-name=".notdef" horiz-adv-x="500" 
d="M63 0v999h375v-999h-375zM125 63h250v874h-250v-874z" />
    <glyph glyph-name=".null" horiz-adv-x="0" 
 />
    <glyph glyph-name="glyph2" horiz-adv-x="205" 
 />
    <glyph glyph-name="space" unicode=" " horiz-adv-x="205" 
 />
    <glyph glyph-name="exclam" unicode="!" horiz-adv-x="252" 
d="M126 -8q-25 0 -42.5 17.5t-17.5 42.5t17.5 42.5t42.5 17.5t42.5 -17.5t17.5 -42.5t-17.5 -42.5t-42.5 -17.5zM77 754h100v-573h-100v573z" />
    <glyph glyph-name="quotedbl" unicode="&#x22;" horiz-adv-x="250" 
d="M29 528l-12 226h86l-12 -226h-62zM160 528l-12 226h86l-12 -226h-62z" />
    <glyph glyph-name="numbersign" unicode="#" 
d="M-12 0l80 258h-107l17 59h108l38 124h-109l17 59h109l79 254h55l-78 -254h88l77 254h56l-78 -254h111l-17 -59h-112l-38 -124h112l-15 -59h-115l-79 -258h-55l79 258h-87l-81 -258h-55zM142 317h87l38 124h-88z" />
    <glyph glyph-name="dollar" unicode="$" 
d="M182 819h45v-65q118 -8 146 -111l-77 -46q-6 33 -30.5 53t-57.5 20q-82 0 -82 -98q0 -55 35 -91q16 -16 85 -60q79 -50 103 -83q33 -45 33 -127q0 -194 -155 -211v-67h-45v67q-111 10 -147 114l83 40q19 -70 85 -70q83 0 83 113q0 57 -28 87q-14 15 -75 54
q-85 55 -114 92q-39 51 -39 137q0 77 37 126q40 54 115 61v65z" />
    <glyph glyph-name="percent" unicode="%" horiz-adv-x="553" 
d="M149 763q107 0 107 -179t-107 -179t-107 179t107 179zM149 465q40 0 40 119t-40 119t-40 -119t40 -119zM432 754h62l-374 -754h-62zM403 349q107 0 107 -179t-107 -179t-107 179t107 179zM403 289q-40 0 -40 -118q0 -120 40 -120t40 120q0 118 -40 118z" />
    <glyph glyph-name="ampersand" unicode="&#x26;" horiz-adv-x="494" 
d="M204 441q38 39 49 55q23 34 23 69q0 60 -55 60q-25 0 -42 -20.5t-17 -45.5q0 -34 42 -118zM282 128l-104 174q-57 -60 -57 -120q0 -40 22 -71q24 -35 63 -35q45 0 76 52zM360 0l-36 59q-49 -69 -130 -69q-73 0 -121 57t-48 131q0 97 105 202q-60 91 -60 177
q0 63 40.5 103.5t103.5 40.5q65 0 104.5 -36t39.5 -100q0 -56 -35 -110q-24 -37 -77 -89l99 -164l62 88l64 -52l-80 -112l80 -126h-111z" />
    <glyph glyph-name="quotesingle" unicode="'" horiz-adv-x="250" 
d="M94 528l-12 226h86l-12 -226h-62z" />
    <glyph glyph-name="parenleft" unicode="(" horiz-adv-x="276" 
d="M130 764l93 -23q-87 -228 -87 -403q0 -203 87 -427l-93 -24q-89 219 -89 445q0 227 89 432z" />
    <glyph glyph-name="parenright" unicode=")" horiz-adv-x="276" 
d="M235 332q0 -226 -89 -445l-93 24q87 224 87 427q0 175 -87 403l93 23q89 -205 89 -432z" />
    <glyph glyph-name="asterisk" unicode="*" horiz-adv-x="357" 
d="M157 754h39v-133l111 70l21 -34l-116 -66l116 -64l-21 -34l-111 67l4 -129h-43l4 132l-109 -70l-23 34l113 64l-113 60l19 36l113 -66z" />
    <glyph glyph-name="plus" unicode="+" horiz-adv-x="500" 
d="M215 291v216h70v-216h172v-70h-172v-219h-70v219h-171v70h171z" />
    <glyph glyph-name="comma" unicode="," horiz-adv-x="205" 
d="M76 106l81 -25l-97 -265l-51 14z" />
    <glyph glyph-name="hyphen" unicode="-" horiz-adv-x="242" 
d="M32 297h178v-76h-178v76z" />
    <glyph glyph-name="hyphen" unicode="&#x2010;" horiz-adv-x="242" 
d="M32 297h178v-76h-178v76z" />
    <glyph glyph-name="period" unicode="." horiz-adv-x="205" 
d="M103 -8q-25 0 -42.5 18t-17.5 43t17.5 42t42.5 17t42.5 -17t17.5 -42t-17.5 -43t-42.5 -18z" />
    <glyph glyph-name="slash" unicode="/" horiz-adv-x="407" 
d="M358 830h79l-385 -933h-81z" />
    <glyph glyph-name="zero" unicode="0" 
d="M205 763q116 0 153 -148q18 -72 18 -238t-18 -238q-37 -148 -153 -148t-153 148q-18 72 -18 238t18 238q37 148 153 148zM278 377q0 144 -11 207q-16 89 -62 89t-62 -89q-11 -63 -11 -207t11 -207q16 -89 62 -89t62 89q11 63 11 207z" />
    <glyph glyph-name="one" unicode="1" 
d="M83 754h172v-754h-98v667h-74v87z" />
    <glyph glyph-name="two" unicode="2" 
d="M208 763q168 0 168 -186q0 -120 -130 -368l-64 -122h187v-87h-332l183 387q54 114 54 196q0 90 -67 90q-43 0 -54 -60q-4 -21 -4 -84v-20h-102v27q0 110 26 159q36 68 135 68z" />
    <glyph glyph-name="three" unicode="3" 
d="M182 347h-29v90h12q62 0 84 27q19 24 19 88q0 121 -58 121q-59 0 -59 -98v-23h-96v7q0 101 25 145q34 59 127 59q157 0 157 -195q0 -70 -12 -106q-19 -56 -72 -72v-2q93 -23 93 -174q0 -223 -173 -223q-159 0 -159 175v23h96v-24q0 -84 63 -84q46 0 62 52q9 29 9 89
q0 125 -89 125z" />
    <glyph glyph-name="four" unicode="4" 
d="M330 754v-473h48v-74h-48v-207h-98v207h-203v86l203 461h98zM232 281v320h-2l-122 -320h124z" />
    <glyph glyph-name="five" unicode="5" 
d="M121 754h240v-87h-163l-24 -190q99 4 150 -56q47 -55 47 -156q0 -118 -46 -189q-54 -85 -166 -85q-50 0 -117 31l26 89q56 -30 88 -30q60 0 90 59q23 45 23 109q0 148 -131 148q-25 0 -61 -9z" />
    <glyph glyph-name="six" unicode="6" 
d="M196 754h108l-147 -322l2 -2q37 34 77 34q82 0 113 -84q19 -52 19 -153q0 -109 -26 -161q-37 -75 -136 -75t-137 84q-26 58 -26 171q0 138 44 264q22 63 109 244zM266 226q0 61 -7 91q-13 57 -52 57q-62 0 -62 -147q0 -146 62 -146q59 0 59 145z" />
    <glyph glyph-name="seven" unicode="7" 
d="M38 754h337l-229 -754h-108l210 667h-210v87z" />
    <glyph glyph-name="eight" unicode="8" 
d="M205 81q62 0 62 126q0 148 -62 148q-41 0 -54 -57q-6 -27 -6 -91q0 -126 60 -126zM132 408v2q-83 27 -83 168q0 185 150 185q91 0 129 -49q34 -43 34 -136q0 -141 -82 -169v-1q89 -22 89 -182q0 -106 -28 -161q-38 -74 -135 -74q-163 0 -163 221q0 80 12 118q20 63 77 78
zM206 453q55 0 55 115q0 105 -55 105q-56 0 -56 -105q0 -115 56 -115z" />
    <glyph glyph-name="nine" unicode="9" 
d="M211 0h-109l150 315l-2 2q-31 -30 -76 -30q-130 0 -130 219q0 116 24 172q36 85 137 85q102 0 139 -84q24 -55 24 -172q0 -115 -30 -216q-23 -79 -83 -201zM205 377q42 0 55 59q6 27 6 91q0 146 -61 146q-59 0 -59 -152q0 -144 59 -144z" />
    <glyph glyph-name="colon" unicode=":" horiz-adv-x="205" 
d="M103 -8q-25 0 -42.5 18t-17.5 43t17.5 42t42.5 17t42.5 -17t17.5 -42t-17.5 -43t-42.5 -18zM103 392q-25 0 -42.5 18t-17.5 43t17.5 42t42.5 17t42.5 -17t17.5 -42t-17.5 -43t-42.5 -18z" />
    <glyph glyph-name="semicolon" unicode=";" horiz-adv-x="205" 
d="M77 106l81 -25l-96 -265l-52 14zM103 392q-25 0 -42.5 18t-17.5 43t17.5 42t42.5 17t42.5 -17t17.5 -42t-17.5 -43t-42.5 -18z" />
    <glyph glyph-name="less" unicode="&#x3c;" horiz-adv-x="500" 
d="M44 222v64l413 232v-73l-335 -191l335 -191v-73z" />
    <glyph glyph-name="equal" unicode="=" horiz-adv-x="500" 
d="M457 384v-70h-413v70h413zM457 194v-70h-413v70h413z" />
    <glyph glyph-name="greater" unicode="&#x3e;" horiz-adv-x="500" 
d="M457 286v-64l-413 -232v73l335 191l-335 191v73z" />
    <glyph glyph-name="question" unicode="?" horiz-adv-x="341" 
d="M211 178h-88v227l23 -1q49 -2 64 37q10 26 10 86q0 70 -3 89q-10 62 -46 62q-30 0 -39 -34q-4 -15 -4 -58v-18h-94v12q0 90 21 129q29 55 112 55q94 0 127 -69q22 -46 22 -157q0 -89 -13 -129q-23 -72 -92 -71v-160zM166 -8q-25 0 -42.5 17.5t-17.5 42.5t17.5 42.5
t42.5 17.5t42.5 -17.5t17.5 -42.5t-17.5 -42.5t-42.5 -17.5z" />
    <glyph glyph-name="at" unicode="@" horiz-adv-x="800" 
d="M334 211q68 0 120 102q45 88 45 161q0 31 -18.5 50t-49.5 19q-74 0 -126 -85q-46 -75 -46 -154q0 -39 17 -64q20 -29 58 -29zM545 540l15 48h69l-104 -309q-13 -39 -13 -52q0 -30 30 -30q53 0 105 65q60 75 60 183q0 119 -88 190q-82 67 -203 67q-139 0 -231.5 -94.5
t-92.5 -234.5q0 -137 94.5 -229t231.5 -92q80 0 150 32q75 35 118 97h63q-48 -88 -138.5 -139.5t-192.5 -51.5q-166 0 -279 112.5t-111 278.5q2 161 116 272t275 111q142 0 244 -90q108 -93 108 -233q0 -101 -68 -194q-75 -103 -175 -103q-71 0 -88 53q-49 -51 -121 -51
q-64 0 -103 44t-39 109q0 112 69 206q76 103 184 103q83 0 115 -68z" />
    <glyph glyph-name="A" unicode="A" horiz-adv-x="414" 
d="M168 754h79l162 -754h-101l-28 147h-150l-28 -147h-98zM265 225l-20 109l-38 274h-2l-60 -383h120z" />
    <glyph glyph-name="B" unicode="B" horiz-adv-x="418" 
d="M156 342v-257q63 -3 88 30q21 29 21 94q0 68 -20 97q-24 37 -89 36zM181 0h-120v754h125q98 0 139 -54q35 -47 35 -148q0 -142 -95 -167v-2q106 -33 106 -177q0 -105 -42 -154q-45 -52 -148 -52zM262 556q0 113 -89 113h-17v-247q64 -3 88 36q18 30 18 98z" />
    <glyph glyph-name="C" unicode="C" horiz-adv-x="369" 
d="M353 742v-91q-38 19 -64 19q-91 0 -123 -114q-18 -64 -18 -184q0 -288 145 -288q32 0 60 15v-88q-34 -21 -80 -21q-231 0 -231 375q0 399 224 399q49 0 87 -22z" />
    <glyph glyph-name="D" unicode="D" horiz-adv-x="466" 
d="M61 754h112q79 0 118 -16q134 -55 134 -374q0 -127 -20 -200q-32 -117 -119 -147q-49 -17 -156 -17h-69v754zM319 364q0 145 -16 200q-32 111 -142 105v-584q109 -3 141 90q17 49 17 189z" />
    <glyph glyph-name="E" unicode="E" horiz-adv-x="347" 
d="M61 754h269v-87h-169v-237h151v-87h-151v-256h169v-87h-269v754z" />
    <glyph glyph-name="F" unicode="F" horiz-adv-x="342" 
d="M61 754h271v-87h-171v-237h154v-87h-154v-343h-100v754z" />
    <glyph glyph-name="G" unicode="G" horiz-adv-x="460" 
d="M238 398h184v-12q0 -141 -2 -167q-18 -229 -178 -229q-122 0 -167 113q-33 82 -33 272q0 193 30 274q42 115 161 115q78 0 121 -38t63 -116l-95 -39q-10 49 -23 68q-21 31 -63 31q-57 0 -75 -79q-13 -57 -13 -215q0 -114 8 -167q19 -125 80 -125q40 0 58 26q28 41 28 160
v41h-84v87z" />
    <glyph glyph-name="H" unicode="H" horiz-adv-x="473" 
d="M61 754h100v-294h151v294h100v-754h-100v373h-151v-373h-100v754z" />
    <glyph glyph-name="I" unicode="I" horiz-adv-x="222" 
d="M161 754v-754h-100v754h100z" />
    <glyph glyph-name="J" unicode="J" horiz-adv-x="303" 
d="M242 754v-567q0 -96 -25 -139q-34 -58 -123 -58q-50 0 -86 20v102q43 -26 66 -26q45 0 59 34q9 22 9 72v562h100z" />
    <glyph glyph-name="K" unicode="K" horiz-adv-x="424" 
d="M61 754h100l1 -365h3l139 365h103l-148 -365l160 -389h-115l-141 389h-2v-389h-100v754z" />
    <glyph glyph-name="L" unicode="L" horiz-adv-x="331" 
d="M61 754h100v-667h168v-87h-268v754z" />
    <glyph glyph-name="M" unicode="M" horiz-adv-x="561" 
d="M86 754h86l107 -544h2l3 31l30 181l65 332h88l70 -754h-98l-18 281l-6 140l-2 99h-2l-17 -108l-78 -412h-69l-97 520h-2l-29 -520h-95z" />
    <glyph glyph-name="N" unicode="N" horiz-adv-x="472" 
d="M140 579l6 -49l15 -253v-277h-100v754h96l176 -573l2 2l-24 302v269h100v-754h-93l-176 581z" />
    <glyph glyph-name="O" unicode="O" horiz-adv-x="476" 
d="M238 764q127 0 171 -142q25 -81 25 -245q0 -163 -25 -244q-44 -143 -171 -143t-171 143q-25 81 -25 244q0 164 25 245q44 142 171 142zM238 670q-54 0 -75 -86q-15 -63 -15 -207q0 -143 15 -206q21 -87 75 -87t75 87q15 63 15 206q0 144 -15 207q-21 86 -75 86z" />
    <glyph glyph-name="P" unicode="P" horiz-adv-x="388" 
d="M161 0h-100v754h120q89 0 130 -28q66 -45 66 -174q0 -117 -50 -169.5t-166 -48.5v-334zM175 669h-14v-250q62 -4 88 31q22 29 22 94q0 125 -96 125z" />
    <glyph glyph-name="Q" unicode="Q" horiz-adv-x="479" 
d="M457 -12l-65 -46l-53 79q-38 -31 -101 -31q-127 0 -171 143q-25 81 -25 244q0 164 25 245q44 142 171 142t171 -142q25 -81 25 -245q0 -202 -45 -295zM238 670q-54 0 -75 -86q-15 -63 -15 -207q0 -143 15 -206q21 -87 75 -87q26 0 41 16l-63 91l61 48l38 -54h2
q11 112 11 192q0 144 -15 207q-21 86 -75 86z" />
    <glyph glyph-name="R" unicode="R" horiz-adv-x="416" 
d="M61 0v754h120q81 0 121 -26q66 -43 66 -167q0 -67 -21 -118q-27 -66 -83 -76l139 -367h-104l-136 369h-2v-369h-100zM161 420q101 -7 101 119q0 61 -12 88q-19 42 -73 42h-16v-249z" />
    <glyph glyph-name="S" unicode="S" horiz-adv-x="354" 
d="M294 739l-1 -101q-44 32 -85 32q-40 0 -64.5 -28t-24.5 -69q0 -51 28 -82l76 -83q59 -64 78 -99q29 -53 29 -122q0 -82 -47 -138q-49 -59 -130 -59q-65 0 -110 36v101q53 -39 99 -39q43 0 67 32q21 28 21 73q0 62 -55 121q-22 23 -101 104q-55 69 -55 153t42 136
q45 57 127 57q63 0 106 -25z" />
    <glyph glyph-name="T" unicode="T" horiz-adv-x="323" 
d="M-4 754h331v-87h-113v-667h-100v667h-118v87z" />
    <glyph glyph-name="U" unicode="U" horiz-adv-x="467" 
d="M61 754h100v-553q0 -117 70 -117q48 0 64 31q12 22 12 75v564h100v-535q0 -108 -21 -152q-37 -77 -152 -77q-108 0 -146 71q-27 51 -27 173v520z" />
    <glyph glyph-name="V" unicode="V" horiz-adv-x="387" 
d="M7 754h100l86 -567h2l5 47l40 254l46 266h95l-148 -754h-80z" />
    <glyph glyph-name="W" unicode="W" horiz-adv-x="592" 
d="M2 754h98l75 -567h2l30 253l52 314h78l82 -562h2l27 242l46 320h97l-132 -754h-80l-57 351l-24 209h-2l-22 -203l-7 -43l-53 -314h-82z" />
    <glyph glyph-name="X" unicode="X" horiz-adv-x="427" 
d="M33 754h99l48 -134q30 -85 40 -138h2l27 104l53 168h102l-139 -371l139 -383h-102l-46 132q-18 53 -25 74q-12 42 -16 76h-2q-1 -30 -19 -87l-62 -195h-108l143 383z" />
    <glyph glyph-name="Y" unicode="Y" horiz-adv-x="392" 
d="M2 754h108l92 -349h2l16 97l64 252h107l-140 -429v-325h-100v325z" />
    <glyph glyph-name="Z" unicode="Z" horiz-adv-x="393" 
d="M42 754h333l-227 -667h215v-87h-348l229 667h-202v87z" />
    <glyph glyph-name="bracketleft" unicode="[" horiz-adv-x="300" 
d="M38 754h219v-68h-133v-721h133v-68h-219v857z" />
    <glyph glyph-name="backslash" unicode="\" horiz-adv-x="250" 
d="M223 0l-274 830h78l274 -830h-78z" />
    <glyph glyph-name="bracketright" unicode="]" horiz-adv-x="300" 
d="M43 754h219v-857h-219v68h133v721h-133v68z" />
    <glyph glyph-name="asciicircum" unicode="^" horiz-adv-x="500" 
d="M225 754h49l183 -417h-67l-141 324l-139 -324h-66z" />
    <glyph glyph-name="underscore" unicode="_" horiz-adv-x="500" 
d="M500 -187h-500v75h500v-75z" />
    <glyph glyph-name="grave" unicode="`" horiz-adv-x="280" 
d="M66 703l67 43l82 -149l-50 -29z" />
    <glyph glyph-name="a" unicode="a" horiz-adv-x="380" 
d="M187 76q59 0 59 177q0 176 -59 176q-45 0 -57 -73q-5 -29 -5 -103q0 -75 5 -104q12 -73 57 -73zM243 0v65h-2q-16 -38 -34 -53q-22 -20 -59 -20q-119 0 -119 267q0 254 122 254q61 0 90 -64h2v56h94v-505h-94z" />
    <glyph glyph-name="b" unicode="b" horiz-adv-x="380" 
d="M43 0v830h94v-381h2q31 64 90 64q122 0 122 -254q0 -267 -119 -267q-37 0 -59 20q-18 15 -34 53h-2v-65h-94zM193 76q45 0 57 73q5 30 5 104t-5 103q-12 73 -57 73q-59 0 -59 -176q0 -177 59 -177z" />
    <glyph glyph-name="c" unicode="c" horiz-adv-x="278" 
d="M254 496v-95h-2q-16 24 -44 24q-83 0 -83 -168q0 -177 81 -177q22 0 48 19v-87q-34 -20 -76 -20q-149 0 -149 256q0 265 150 265q40 0 75 -17z" />
    <glyph glyph-name="d" unicode="d" horiz-adv-x="380" 
d="M243 0v65h-2q-32 -73 -93 -73q-119 0 -119 267q0 254 122 254q58 0 90 -64h2v381h94v-830h-94zM187 76q59 0 59 177q0 176 -59 176q-45 0 -57 -73q-5 -29 -5 -103q0 -75 5 -104q12 -73 57 -73z" />
    <glyph glyph-name="e" unicode="e" horiz-adv-x="361" 
d="M125 301h112q0 128 -57 128q-38 0 -50 -49q-5 -21 -5 -79zM333 234h-208q0 -158 59 -158t59 94h87q0 -77 -34 -124q-39 -54 -113 -54q-94 0 -130 88q-24 59 -24 169q0 264 151 264q153 0 153 -264v-15z" />
    <glyph glyph-name="f" unicode="f" horiz-adv-x="249" 
d="M21 505h47v163q0 81 17 117q25 53 97 53q30 0 63 -14v-98q-22 12 -39 12q-31 0 -40 -28q-4 -13 -4 -53v-152h78v-74h-78v-431h-94v431h-47v74z" />
    <glyph glyph-name="g" unicode="g" horiz-adv-x="382" 
d="M245 250q0 179 -61 179q-41 0 -54 -73q-5 -29 -5 -101q0 -70 6 -104q13 -75 56 -75q44 0 55 72q3 19 3 102zM339 505v-509q0 -108 -24 -152q-34 -59 -130 -59q-70 0 -109.5 38t-39.5 108v14h91q-2 -32 13.5 -54t46.5 -22q41 0 52 36q5 16 5 71v84h-2q-22 -69 -90 -68
q-78 1 -106 97q-17 57 -17 160q0 109 14 162q27 102 107 102q58 0 92 -68l2 2v58h95z" />
    <glyph glyph-name="h" unicode="h" horiz-adv-x="388" 
d="M44 830h94v-383h2q34 66 102 66q67 0 89 -54q14 -34 14 -112v-347h-94v349q0 80 -56 80q-40 0 -52 -41q-5 -18 -5 -73v-315h-94v830z" />
    <glyph glyph-name="i" unicode="i" horiz-adv-x="180" 
d="M137 505v-505h-94v505h94zM91 595q-26 0 -44.5 18.5t-18.5 44.5t18.5 44t44.5 18q25 0 43.5 -18.5t18.5 -43.5q0 -26 -18 -44.5t-44 -18.5z" />
    <glyph glyph-name="j" unicode="j" horiz-adv-x="180" 
d="M137 505v-712h-94v712h94zM91 595q-26 0 -44.5 18.5t-18.5 44.5t18.5 44t44.5 18q25 0 43.5 -19t18.5 -44q0 -26 -18 -44t-44 -18z" />
    <glyph glyph-name="k" unicode="k" horiz-adv-x="395" 
d="M44 830h94v-549h2l117 224h105l-129 -224l146 -281h-109l-130 268h-2v-268h-94v830z" />
    <glyph glyph-name="l" unicode="l" horiz-adv-x="180" 
d="M137 830v-830h-94v830h94z" />
    <glyph glyph-name="m" unicode="m" horiz-adv-x="590" 
d="M138 505v-62h2q32 70 99 70q75 0 91 -70h2q32 70 104 70q111 0 111 -122v-391h-94v354q0 75 -51 75q-44 0 -55 -37q-5 -17 -5 -71v-321h-94v343q0 41 -7 58q-11 28 -47 28q-39 0 -51 -38q-6 -19 -6 -70v-321h-94v505h95z" />
    <glyph glyph-name="n" unicode="n" horiz-adv-x="388" 
d="M138 505v-58h2q34 66 102 66q67 0 89 -54q14 -34 14 -112v-347h-94v349q0 80 -56 80q-40 0 -52 -41q-5 -18 -5 -73v-315h-94v505h94z" />
    <glyph glyph-name="o" unicode="o" horiz-adv-x="375" 
d="M188 -8q-159 0 -159 259q0 262 159 262t159 -262q0 -259 -159 -259zM188 78q46 0 59 73q4 23 4 100q0 80 -4 103q-13 73 -59 73q-45 0 -58 -73q-5 -29 -5 -103q0 -71 5 -100q13 -73 58 -73z" />
    <glyph glyph-name="p" unicode="p" horiz-adv-x="380" 
d="M193 76q39 0 53 57q9 36 9 119q0 74 -5 104q-12 73 -57 73q-59 0 -59 -177q0 -176 59 -176zM137 505v-65h2q31 73 93 73q119 0 119 -266q0 -255 -122 -255q-60 0 -90 65h-2v-264h-94v712h94z" />
    <glyph glyph-name="q" unicode="q" horiz-adv-x="380" 
d="M187 76q59 0 59 176q0 177 -59 177q-45 0 -57 -73q-5 -29 -5 -104q0 -74 5 -103q12 -73 57 -73zM337 505v-712h-94v264h-2q-30 -65 -90 -65q-122 0 -122 255q0 266 119 266q63 0 93 -73h2v65h94z" />
    <glyph glyph-name="r" unicode="r" horiz-adv-x="269" 
d="M138 505v-62h2q35 70 107 70v-93l-16 1q-92 6 -92 -103v-318h-95v505h94z" />
    <glyph glyph-name="s" unicode="s" horiz-adv-x="276" 
d="M234 491v-89q-30 27 -70 27q-26 0 -45 -14.5t-19 -39.5q1 -33 42 -66q68 -54 75 -61q41 -45 41 -106q0 -67 -39 -108.5t-106 -41.5q-42 0 -82 24v92q40 -32 78 -32q63 0 63 64q0 32 -45 74l-72 58q-41 43 -41 103t37.5 99t97.5 39q48 0 85 -22z" />
    <glyph glyph-name="t" unicode="t" horiz-adv-x="221" 
d="M63 648h94v-143h50v-74h-50v-431h-94v431h-51v74h51v143z" />
    <glyph glyph-name="u" unicode="u" horiz-adv-x="389" 
d="M44 505h94v-316q0 -55 5 -72q11 -39 53 -39q41 0 52 36q4 14 4 70v321h94v-341q0 -84 -30 -125q-35 -47 -116 -47q-95 0 -129 53q-27 42 -27 139v321z" />
    <glyph glyph-name="v" unicode="v" horiz-adv-x="358" 
d="M13 505h100l68 -382h2l3 30l37 204l31 148h91l-133 -505h-62z" />
    <glyph glyph-name="w" unicode="w" horiz-adv-x="487" 
d="M-3 505h99l54 -362h2l22 157l39 205h67l57 -362h2l26 188l33 174h92l-119 -505h-64l-51 259l-10 112h-2l-22 -181l-37 -190h-65z" />
    <glyph glyph-name="x" unicode="x" horiz-adv-x="395" 
d="M14 505h110l71 -173l24 75l41 98h98l-114 -238l138 -267h-111l-50 109q-28 61 -33 96h-2q-3 -38 -34 -111l-40 -94h-98l126 267z" />
    <glyph glyph-name="y" unicode="y" horiz-adv-x="373" 
d="M4 505h105l74 -352h2l85 352h95l-206 -712h-99l78 248z" />
    <glyph glyph-name="z" unicode="z" horiz-adv-x="335" 
d="M27 505h294l-169 -421h160v-84h-298l175 421h-162v84z" />
    <glyph glyph-name="braceleft" unicode="{" horiz-adv-x="258" 
d="M2 301v52q90 11 90 81v188q0 132 132 132h31v-57q-45 -4 -62 -23t-17 -64v-159q0 -55 -20 -82q-21 -30 -74 -41v-2q53 -11 73.5 -39.5t20.5 -83.5v-159q0 -45 17 -64t62 -23v-57h-31q-132 0 -132 132v188q0 70 -90 81z" />
    <glyph glyph-name="bar" unicode="|" horiz-adv-x="250" 
d="M90 0v830h70v-830h-70z" />
    <glyph glyph-name="braceright" unicode="}" horiz-adv-x="258" 
d="M3 -100v57q45 4 62 23t17 64v159q0 55 20.5 83.5t73.5 39.5v2q-53 11 -74 41q-20 27 -20 82v159q0 45 -17 64t-62 23v57h31q132 0 132 -132v-188q0 -70 90 -81v-52q-90 -11 -90 -81v-188q0 -132 -132 -132h-31z" />
    <glyph glyph-name="asciitilde" unicode="~" horiz-adv-x="500" 
d="M161 331q29 0 95.5 -35t85.5 -35q44 0 81 83l34 -47q-49 -111 -116 -111q-25 0 -111 44q-49 25 -69 25q-28 0 -51 -30q-13 -17 -32 -60l-34 48q53 118 117 118z" />
    <glyph glyph-name="exclamdown" unicode="&#xa1;" horiz-adv-x="252" 
d="M126 557q25 0 42.5 -17t17.5 -42t-17.5 -43t-42.5 -18t-42.5 18t-17.5 43t17.5 42t42.5 17zM77 -205v573h100v-573h-100z" />
    <glyph glyph-name="cent" unicode="&#xa2;" 
d="M220 51v63q-78 22 -105 99q-17 49 -17 159q0 238 122 263v70h47v-72q28 -4 46 -11v-89q-16 13 -39 13q-74 0 -74 -170q0 -175 75 -175q12 0 38 11v-83q-19 -12 -48 -13v-65h-45z" />
    <glyph glyph-name="sterling" unicode="&#xa3;" 
d="M114 125l15 -1q20 35 20 74q0 37 -20 89h-88v39h74q-38 80 -50 116q-23 67 -23 123q0 91 49 144.5t139 53.5q69 0 110.5 -39.5t44.5 -108.5l-78 -38q4 104 -78 104q-43 0 -67 -27t-24 -70q0 -60 26 -132q10 -27 49 -126h97v-39h-91q11 -33 11 -67q0 -66 -25 -115
q56 -28 69 -28q24 0 36 34l82 -27q-32 -93 -107 -93q-32 0 -84.5 24t-68.5 24q-26 0 -34 -34l-77 31q4 35 31.5 63t61.5 26z" />
    <glyph glyph-name="currency" unicode="&#xa4;" 
d="M-16 110l39 42q-43 70 -43 148q0 84 43 151l-39 43l47 53l39 -43q59 49 139 49q68 0 131 -49l40 43l47 -53l-38 -43q42 -71 42 -156q0 -71 -42 -143l38 -42l-47 -53l-40 43q-61 -50 -139 -50q-66 0 -131 50l-39 -43zM209 481q-74 0 -117 -55q-40 -50 -40 -126
q0 -70 40 -122q43 -56 111 -56q71 0 115 56q41 52 41 125q0 70 -39 121q-43 57 -111 57z" />
    <glyph glyph-name="yen" unicode="&#xa5;" 
d="M268 0h-100v264h-118v50h118v11l-26 71h-92v50h74l-113 308h108l98 -348h2l14 96l60 252h107l-95 -308h81v-50h-96l-22 -71v-11h118v-50h-118v-264z" />
    <glyph glyph-name="brokenbar" unicode="&#xa6;" horiz-adv-x="250" 
d="M90 0v340h70v-340h-70zM90 830h70v-340h-70v340z" />
    <glyph glyph-name="section" unicode="&#xa7;" horiz-adv-x="415" 
d="M234 220l16 -9q50 40 52 92q2 40 -30 67q-17 14 -70 41l-24 12q-44 -37 -44 -85q0 -42 32 -73q17 -16 68 -45zM370 598h-102q-9 80 -55 80q-57 0 -57 -81q0 -48 28 -74q19 -18 72 -39q139 -55 142 -170q1 -47 -20 -90.5t-59 -68.5q57 -46 57 -127q0 -78 -40.5 -122
t-117.5 -44q-78 0 -122 42t-44 120v19h102q0 -95 60 -95q64 0 64 80q0 45 -33 76q-17 16 -71 47q-76 43 -96 64q-38 40 -40 110q-2 97 79 142q-60 39 -60 137q0 71 42 115.5t113 44.5q75 0 115 -45t43 -121z" />
    <glyph glyph-name="dieresis" unicode="&#xa8;" horiz-adv-x="280" 
d="M61 604q-24 0 -41 15.5t-17 39.5q0 25 16.5 41.5t41.5 16.5q22 0 38.5 -16.5t16.5 -38.5q0 -23 -16 -40.5t-39 -17.5zM222 604q-24 0 -41 15.5t-17 39.5q0 25 16.5 41.5t41.5 16.5q22 0 38.5 -16.5t16.5 -38.5q0 -23 -16 -40.5t-39 -17.5z" />
    <glyph glyph-name="copyright" unicode="&#xa9;" horiz-adv-x="800" 
d="M401 -10q-163 0 -275.5 112.5t-112.5 275.5q0 162 113 274t275 112t274.5 -112t112.5 -274q0 -163 -112 -275.5t-275 -112.5zM76 377q0 -139 93 -231.5t232 -92.5q138 0 231 93t93 231q0 137 -93.5 230.5t-230.5 93.5t-231 -93.5t-94 -230.5zM533 307h65
q-7 -68 -59 -109.5t-121 -41.5q-97 0 -156.5 63.5t-59.5 161.5t58 160.5t155 62.5q71 0 121 -39t62 -108h-65q-7 44 -39.5 69t-77.5 25q-74 0 -113 -49q-36 -44 -36 -120q0 -74 38 -121q41 -52 113 -52q47 0 79 26t36 72z" />
    <glyph glyph-name="ordfeminine" unicode="&#xaa;" horiz-adv-x="228" 
d="M114 714q-29 0 -37 -44q-3 -16 -3 -62t3 -63q8 -44 37 -44q39 0 39 107q0 106 -39 106zM151 456v39h-2q-20 -44 -60 -44q-77 0 -77 161q0 152 79 152q38 0 59 -38h1v33h61v-303h-61zM22 412h190v-51h-190v51z" />
    <glyph glyph-name="guillemotleft" unicode="&#xab;" horiz-adv-x="357" 
d="M145 260l129 222l45 -27l-115 -195l104 -199l-44 -25zM26 260l129 222l45 -27l-115 -195l104 -199l-44 -25z" />
    <glyph glyph-name="logicalnot" unicode="&#xac;" horiz-adv-x="500" 
d="M387 117v197h-343v70h413v-267h-70z" />
    <glyph glyph-name="minus" unicode="&#xad;" horiz-adv-x="500" 
d="M44 221v70h413v-70h-413z" />
    <glyph glyph-name="minus" unicode="&#x2212;" horiz-adv-x="500" 
d="M44 221v70h413v-70h-413z" />
    <glyph glyph-name="registered" unicode="&#xae;" horiz-adv-x="800" 
d="M401 -10q-163 0 -275.5 112.5t-112.5 275.5q0 162 113 274t275 112t274.5 -112t112.5 -274q0 -163 -112 -275.5t-275 -112.5zM401 53q138 0 231 93t93 231q0 137 -93.5 230.5t-230.5 93.5t-231 -93.5t-94 -230.5q0 -139 93 -231.5t232 -92.5zM454 357l130 -196h-70
l-123 196h-84v-196h-61v435h190q73 0 105 -24q51 -28 50 -93q-1 -118 -137 -122zM307 404h74q76 0 97 6q51 15 51 71q0 68 -105 68h-117v-145z" />
    <glyph glyph-name="macron" unicode="&#xaf;" horiz-adv-x="280" 
d="M297 657h-313v58h313v-58z" />
    <glyph glyph-name="macron" unicode="&#x2c9;" horiz-adv-x="280" 
d="M297 657h-313v58h313v-58z" />
    <glyph glyph-name="degree" unicode="&#xb0;" horiz-adv-x="400" 
d="M200 754q62 0 106 -44t44 -106t-44 -106t-106 -44t-106 44t-44 106t44 106t106 44zM200 692q-36 0 -62 -26t-26 -62q0 -37 25.5 -62.5t62.5 -25.5t62.5 25.5t25.5 62.5q0 36 -26 62t-62 26z" />
    <glyph glyph-name="plusminus" unicode="&#xb1;" horiz-adv-x="500" 
d="M215 351v156h70v-156h172v-70h-172v-159h-70v159h-171v70h171zM44 2v70h413v-70h-413z" />
    <glyph glyph-name="twosuperior" unicode="&#xb2;" horiz-adv-x="247" 
d="M126 763q113 0 113 -112q0 -81 -85 -221l-42 -69h122v-56h-219l8 23l107 209q35 68 35 118q0 52 -39 52q-26 0 -33 -35q-2 -10 -2 -50v-12h-73v17q0 66 17 95q24 41 91 41z" />
    <glyph glyph-name="threesuperior" unicode="&#xb3;" horiz-adv-x="247" 
d="M171 539v-2q63 -12 63 -103q0 -135 -115 -135q-107 0 -107 105v14h69v-15q0 -48 38 -48q42 0 42 84q0 75 -58 75h-19v54h8q40 0 53.5 14.5t13.5 54.5q0 70 -33 70q-36 0 -36 -57v-13h-69l4 4q-4 62 15 90q23 32 84 32q105 0 105 -117q0 -91 -58 -107z" />
    <glyph glyph-name="acute" unicode="&#xb4;" horiz-adv-x="280" 
d="M215 703l-99 -135l-50 29l82 149z" />
    <glyph glyph-name="mu" unicode="&#xb5;" horiz-adv-x="388" 
d="M251 505h94v-347q0 -78 -14 -112q-22 -54 -89 -54q-68 0 -102 66h-2v-262h-94v709h94v-315q0 -55 5 -73q12 -41 52 -41q56 0 56 80v349z" />
    <glyph glyph-name="mu" unicode="&#x3bc;" horiz-adv-x="388" 
d="M251 505h94v-347q0 -78 -14 -112q-22 -54 -89 -54q-68 0 -102 66h-2v-262h-94v709h94v-315q0 -55 5 -73q12 -41 52 -41q56 0 56 80v349z" />
    <glyph glyph-name="paragraph" unicode="&#xb6;" horiz-adv-x="440" 
d="M157 -112v482q-68 -1 -115 62q-42 58 -42 128q0 89 52 146q44 48 131 48h208v-866h-79v799h-76v-799h-79z" />
    <glyph glyph-name="periodcentered" unicode="&#xb7;" horiz-adv-x="205" 
d="M103 195q-25 0 -42.5 18t-17.5 43t17.5 42t42.5 17t42.5 -17t17.5 -42t-17.5 -43t-42.5 -18z" />
    <glyph glyph-name="periodcentered" unicode="&#x2219;" horiz-adv-x="205" 
d="M103 195q-25 0 -42.5 18t-17.5 43t17.5 42t42.5 17t42.5 -17t17.5 -42t-17.5 -43t-42.5 -18z" />
    <glyph glyph-name="cedilla" unicode="&#xb8;" horiz-adv-x="280" 
d="M138 -51l66 -32l-85 -133l-43 23z" />
    <glyph glyph-name="onesuperior" unicode="&#xb9;" horiz-adv-x="247" 
d="M44 758h120v-453h-72v399h-48v54z" />
    <glyph glyph-name="ordmasculine" unicode="&#xba;" horiz-adv-x="228" 
d="M19 412h190v-51h-190v51zM114 451q-103 0 -103 155q0 158 103 158t103 -158q0 -155 -103 -155zM115 712q-29 0 -37 -44q-3 -17 -3 -62q0 -44 3 -60q8 -43 37 -43q27 0 35 43q3 16 3 60q0 50 -2 62q-7 44 -36 44z" />
    <glyph glyph-name="guillemotright" unicode="&#xbb;" horiz-adv-x="357" 
d="M212 260l-119 -224l-44 25l104 199l-115 195l45 27zM331 260l-119 -224l-44 25l104 199l-115 195l45 27z" />
    <glyph glyph-name="onequarter" unicode="&#xbc;" horiz-adv-x="616" 
d="M44 758h120v-453h-72v399h-48v54zM561 453v-283h31v-48h-31v-122h-70v122h-140v54l132 277h78zM491 170v190h-2l-79 -190h81zM465 754h62l-374 -754h-62z" />
    <glyph glyph-name="onehalf" unicode="&#xbd;" horiz-adv-x="616" 
d="M32 758h120v-453h-72v395h-48v58zM579 0h-219l8 23l107 209q35 68 35 118q0 52 -39 52q-26 0 -33 -35q-2 -10 -2 -50v-12h-73v17q0 66 17 95q24 41 91 41q113 0 113 -112q0 -81 -85 -221l-42 -69h122v-56zM433 754h62l-374 -754h-62z" />
    <glyph glyph-name="threequarters" unicode="&#xbe;" horiz-adv-x="616" 
d="M487 122h-140v54l132 277h78v-283h31v-48h-31v-122h-70v122zM487 170v190h-2l-79 -190h81zM485 754h62l-374 -754h-62zM134 763q105 0 105 -117q0 -91 -58 -107v-2q63 -12 63 -103q0 -135 -115 -135q-107 0 -107 105v14h69v-15q0 -48 38 -48q42 0 42 84q0 75 -58 75h-19
v54h8q40 0 53.5 14.5t13.5 54.5q0 70 -33 70q-36 0 -36 -57v-13h-69l4 4q-4 62 15 90q23 32 84 32z" />
    <glyph glyph-name="questiondown" unicode="&#xbf;" horiz-adv-x="341" 
d="M138 368h88v-227l-22 1q-50 2 -65 -36q-9 -23 -9 -86q0 -68 3 -87q10 -62 48 -62q29 0 37 34q4 16 4 58v18h94v-14q0 -89 -21 -127q-30 -55 -113 -55q-95 0 -127 69q-21 46 -21 155q0 87 13 128q23 73 91 71v160zM183 557q25 0 42.5 -17t17.5 -42t-17.5 -43t-42.5 -18
t-42.5 18t-17.5 43t17.5 42t42.5 17z" />
    <glyph glyph-name="Agrave" unicode="&#xc0;" horiz-adv-x="414" 
d="M168 754h79l162 -754h-101l-28 147h-150l-28 -147h-98zM265 225l-20 109l-38 274h-2l-60 -383h120zM133 952l67 43l82 -149l-50 -29z" />
    <glyph glyph-name="Aacute" unicode="&#xc1;" horiz-adv-x="414" 
d="M168 754h79l162 -754h-101l-28 147h-150l-28 -147h-98zM265 225l-20 109l-38 274h-2l-60 -383h120zM282 952l-99 -135l-50 29l82 149z" />
    <glyph glyph-name="Acircumflex" unicode="&#xc2;" horiz-adv-x="414" 
d="M168 754h79l162 -754h-101l-28 147h-150l-28 -147h-98zM265 225l-20 109l-38 274h-2l-60 -383h120zM209 999l123 -140l-47 -38l-78 83l-72 -83l-52 38z" />
    <glyph glyph-name="Atilde" unicode="&#xc3;" horiz-adv-x="414" 
d="M168 754h79l162 -754h-101l-28 147h-150l-28 -147h-98zM265 225l-20 109l-38 274h-2l-60 -383h120zM277 966v0h56q2 -99 -74 -99q-18 0 -50.5 16t-43.5 16q-24 0 -22 -28h-61q2 99 75 99q22 0 55.5 -16.5t45.5 -16.5q17 0 19 29z" />
    <glyph glyph-name="Adieresis" unicode="&#xc4;" horiz-adv-x="414" 
d="M168 754h79l162 -754h-101l-28 147h-150l-28 -147h-98zM265 225l-20 109l-38 274h-2l-60 -383h120zM128 853q-24 0 -41 15.5t-17 39.5q0 25 16.5 41.5t41.5 16.5q22 0 38.5 -16.5t16.5 -38.5q0 -23 -16 -40.5t-39 -17.5zM289 853q-24 0 -41 15.5t-17 39.5q0 25 16.5 41.5
t41.5 16.5q22 0 38.5 -16.5t16.5 -38.5q0 -23 -16 -40.5t-39 -17.5z" />
    <glyph glyph-name="Aring" unicode="&#xc5;" horiz-adv-x="414" 
d="M168 754h79l162 -754h-101l-28 147h-150l-28 -147h-98zM265 225l-20 109l-38 274h-2l-60 -383h120zM209 832q-34 0 -58.5 22.5t-24.5 56.5q0 35 23 59.5t58 24.5t58.5 -24.5t23.5 -59.5q0 -32 -24 -55.5t-56 -23.5zM209 879q13 0 23 10t10 23q0 36 -35 36q-34 0 -34 -36
q0 -33 36 -33z" />
    <glyph glyph-name="AE" unicode="&#xc6;" horiz-adv-x="566" 
d="M160 754h250l19 -87h-164l52 -239h149l19 -87h-149l58 -254h161l20 -87h-262l-30 147h-157l-28 -147h-98zM268 225l-33 159l-32 227h-2l-60 -386h127z" />
    <glyph glyph-name="Ccedilla" unicode="&#xc7;" horiz-adv-x="369" 
d="M353 742v-91q-38 19 -64 19q-91 0 -123 -114q-18 -64 -18 -184q0 -288 145 -288q32 0 60 15v-88q-34 -21 -80 -21q-231 0 -231 375q0 399 224 399q49 0 87 -22zM183 -51l66 -32l-85 -133l-43 23z" />
    <glyph glyph-name="Egrave" unicode="&#xc8;" horiz-adv-x="347" 
d="M61 754h269v-87h-169v-237h151v-87h-151v-256h169v-87h-269v754zM100 952l67 43l82 -149l-50 -29z" />
    <glyph glyph-name="Eacute" unicode="&#xc9;" horiz-adv-x="347" 
d="M61 754h269v-87h-169v-237h151v-87h-151v-256h169v-87h-269v754zM249 952l-99 -135l-50 29l82 149z" />
    <glyph glyph-name="Ecircumflex" unicode="&#xca;" horiz-adv-x="347" 
d="M61 754h269v-87h-169v-237h151v-87h-151v-256h169v-87h-269v754zM176 999l123 -140l-47 -38l-78 83l-72 -83l-52 38z" />
    <glyph glyph-name="Edieresis" unicode="&#xcb;" horiz-adv-x="347" 
d="M61 754h269v-87h-169v-237h151v-87h-151v-256h169v-87h-269v754zM95 853q-24 0 -41 15.5t-17 39.5q0 25 16.5 41.5t41.5 16.5q22 0 38.5 -16.5t16.5 -38.5q0 -23 -16 -40.5t-39 -17.5zM256 853q-24 0 -41 15.5t-17 39.5q0 25 16.5 41.5t41.5 16.5q22 0 38.5 -16.5
t16.5 -38.5q0 -23 -16 -40.5t-39 -17.5z" />
    <glyph glyph-name="Igrave" unicode="&#xcc;" horiz-adv-x="222" 
d="M161 754v-754h-100v754h100zM37 952l67 43l82 -149l-50 -29z" />
    <glyph glyph-name="Iacute" unicode="&#xcd;" horiz-adv-x="222" 
d="M161 754v-754h-100v754h100zM186 952l-99 -135l-50 29l82 149z" />
    <glyph glyph-name="Icircumflex" unicode="&#xce;" horiz-adv-x="222" 
d="M161 754v-754h-100v754h100zM113 999l123 -140l-47 -38l-78 83l-72 -83l-52 38z" />
    <glyph glyph-name="Idieresis" unicode="&#xcf;" horiz-adv-x="222" 
d="M161 754v-754h-100v754h100zM32 853q-24 0 -41 15.5t-17 39.5q0 25 16.5 41.5t41.5 16.5q22 0 38.5 -16.5t16.5 -38.5q0 -23 -16 -40.5t-39 -17.5zM193 853q-24 0 -41 15.5t-17 39.5q0 25 16.5 41.5t41.5 16.5q22 0 38.5 -16.5t16.5 -38.5q0 -23 -16 -40.5t-39 -17.5z
" />
    <glyph glyph-name="Eth" unicode="&#xd0;" horiz-adv-x="466" 
d="M61 430v324h112q125 0 176 -56q76 -84 76 -334q0 -129 -20 -202q-33 -116 -124 -146q-48 -16 -151 -16h-69v343h-70v87h70zM319 364q0 145 -16 200q-32 111 -142 105v-239h70v-87h-70v-258q109 -3 141 90q17 49 17 189z" />
    <glyph glyph-name="Ntilde" unicode="&#xd1;" horiz-adv-x="472" 
d="M140 579l6 -49l15 -253v-277h-100v754h96l176 -573l2 2l-24 302v269h100v-754h-93l-176 581zM306 966v0h56q2 -99 -74 -99q-18 0 -50.5 16t-43.5 16q-24 0 -22 -28h-61q2 99 75 99q22 0 55.5 -16.5t45.5 -16.5q17 0 19 29z" />
    <glyph glyph-name="Ograve" unicode="&#xd2;" horiz-adv-x="476" 
d="M238 764q127 0 171 -142q25 -81 25 -245q0 -163 -25 -244q-44 -143 -171 -143t-171 143q-25 81 -25 244q0 164 25 245q44 142 171 142zM238 670q-54 0 -75 -86q-15 -63 -15 -207q0 -143 15 -206q21 -87 75 -87t75 87q15 63 15 206q0 144 -15 207q-21 86 -75 86zM164 952
l67 43l82 -149l-50 -29z" />
    <glyph glyph-name="Oacute" unicode="&#xd3;" horiz-adv-x="476" 
d="M238 764q127 0 171 -142q25 -81 25 -245q0 -163 -25 -244q-44 -143 -171 -143t-171 143q-25 81 -25 244q0 164 25 245q44 142 171 142zM238 670q-54 0 -75 -86q-15 -63 -15 -207q0 -143 15 -206q21 -87 75 -87t75 87q15 63 15 206q0 144 -15 207q-21 86 -75 86zM313 952
l-99 -135l-50 29l82 149z" />
    <glyph glyph-name="Ocircumflex" unicode="&#xd4;" horiz-adv-x="476" 
d="M238 764q127 0 171 -142q25 -81 25 -245q0 -163 -25 -244q-44 -143 -171 -143t-171 143q-25 81 -25 244q0 164 25 245q44 142 171 142zM238 670q-54 0 -75 -86q-15 -63 -15 -207q0 -143 15 -206q21 -87 75 -87t75 87q15 63 15 206q0 144 -15 207q-21 86 -75 86zM240 999
l123 -140l-47 -38l-78 83l-72 -83l-52 38z" />
    <glyph glyph-name="Otilde" unicode="&#xd5;" horiz-adv-x="476" 
d="M238 764q127 0 171 -142q25 -81 25 -245q0 -163 -25 -244q-44 -143 -171 -143t-171 143q-25 81 -25 244q0 164 25 245q44 142 171 142zM238 670q-54 0 -75 -86q-15 -63 -15 -207q0 -143 15 -206q21 -87 75 -87t75 87q15 63 15 206q0 144 -15 207q-21 86 -75 86zM308 966
v0h56q2 -99 -74 -99q-18 0 -50.5 16t-43.5 16q-24 0 -22 -28h-61q2 99 75 99q22 0 55.5 -16.5t45.5 -16.5q17 0 19 29z" />
    <glyph glyph-name="Odieresis" unicode="&#xd6;" horiz-adv-x="476" 
d="M238 764q127 0 171 -142q25 -81 25 -245q0 -163 -25 -244q-44 -143 -171 -143t-171 143q-25 81 -25 244q0 164 25 245q44 142 171 142zM238 670q-54 0 -75 -86q-15 -63 -15 -207q0 -143 15 -206q21 -87 75 -87t75 87q15 63 15 206q0 144 -15 207q-21 86 -75 86zM159 853
q-24 0 -41 15.5t-17 39.5q0 25 16.5 41.5t41.5 16.5q22 0 38.5 -16.5t16.5 -38.5q0 -23 -16 -40.5t-39 -17.5zM320 853q-24 0 -41 15.5t-17 39.5q0 25 16.5 41.5t41.5 16.5q22 0 38.5 -16.5t16.5 -38.5q0 -23 -16 -40.5t-39 -17.5z" />
    <glyph glyph-name="Oslash" unicode="&#xd8;" horiz-adv-x="476" 
d="M407 773l42 -21l-50 -99q35 -80 35 -294q0 -369 -189 -369q-96 0 -141 63l-40 -80l-41 21l54 109q-35 84 -35 297q0 364 193 364q89 0 137 -60zM236 670q-88 0 -88 -290q0 -21 1.5 -63t1.5 -63v-1h2l156 335q-19 82 -73 82zM239 84q55 0 76 110q13 63 13 149q0 54 -4 164
h-3l-156 -337q21 -86 74 -86z" />
    <glyph glyph-name="Ugrave" unicode="&#xd9;" horiz-adv-x="467" 
d="M61 754h100v-553q0 -117 70 -117q48 0 64 31q12 22 12 75v564h100v-535q0 -108 -21 -152q-37 -77 -152 -77q-108 0 -146 71q-27 51 -27 173v520zM160 952l67 43l82 -149l-50 -29z" />
    <glyph glyph-name="Uacute" unicode="&#xda;" horiz-adv-x="467" 
d="M61 754h100v-553q0 -117 70 -117q48 0 64 31q12 22 12 75v564h100v-535q0 -108 -21 -152q-37 -77 -152 -77q-108 0 -146 71q-27 51 -27 173v520zM309 952l-99 -135l-50 29l82 149z" />
    <glyph glyph-name="Ucircumflex" unicode="&#xdb;" horiz-adv-x="467" 
d="M61 754h100v-553q0 -117 70 -117q48 0 64 31q12 22 12 75v564h100v-535q0 -108 -21 -152q-37 -77 -152 -77q-108 0 -146 71q-27 51 -27 173v520zM236 999l123 -140l-47 -38l-78 83l-72 -83l-52 38z" />
    <glyph glyph-name="Udieresis" unicode="&#xdc;" horiz-adv-x="467" 
d="M61 754h100v-553q0 -117 70 -117q48 0 64 31q12 22 12 75v564h100v-535q0 -108 -21 -152q-37 -77 -152 -77q-108 0 -146 71q-27 51 -27 173v520zM155 853q-24 0 -41 15.5t-17 39.5q0 25 16.5 41.5t41.5 16.5q22 0 38.5 -16.5t16.5 -38.5q0 -23 -16 -40.5t-39 -17.5z
M316 853q-24 0 -41 15.5t-17 39.5q0 25 16.5 41.5t41.5 16.5q22 0 38.5 -16.5t16.5 -38.5q0 -23 -16 -40.5t-39 -17.5z" />
    <glyph glyph-name="Yacute" unicode="&#xdd;" horiz-adv-x="392" 
d="M2 754h108l92 -349h2l16 97l64 252h107l-140 -429v-325h-100v325zM271 952l-99 -135l-50 29l82 149z" />
    <glyph glyph-name="Thorn" unicode="&#xde;" horiz-adv-x="396" 
d="M175 519h-14v-250q62 -4 88 31q22 29 22 94q0 125 -96 125zM161 754v-150q104 0 148 -28q68 -44 68 -174q0 -117 -50 -169.5t-166 -48.5v-184h-100v754h100z" />
    <glyph glyph-name="germandbls" unicode="&#xdf;" horiz-adv-x="425" 
d="M64 505v142q0 94 26 136q34 55 122 55q87 0 125 -44q36 -40 36 -129q0 -125 -71 -148v-2q59 -16 78 -97q10 -43 10 -141q0 -156 -23 -208q-31 -69 -132 -69h-33v84h14q55 0 69 47q9 29 9 140q0 99 -10 132q-21 71 -92 69v84q53 -3 71 27q14 22 14 78q0 93 -61 93
q-41 0 -53 -45q-5 -19 -5 -71v-638h-94v431h-43v74h43z" />
    <glyph glyph-name="agrave" unicode="&#xe0;" horiz-adv-x="380" 
d="M187 76q59 0 59 177q0 176 -59 176q-45 0 -57 -73q-5 -29 -5 -103q0 -75 5 -104q12 -73 57 -73zM243 0v65h-2q-16 -38 -34 -53q-22 -20 -59 -20q-119 0 -119 267q0 254 122 254q61 0 90 -64h2v56h94v-505h-94zM116 703l67 43l82 -149l-50 -29z" />
    <glyph glyph-name="aacute" unicode="&#xe1;" horiz-adv-x="380" 
d="M187 76q59 0 59 177q0 176 -59 176q-45 0 -57 -73q-5 -29 -5 -103q0 -75 5 -104q12 -73 57 -73zM243 0v65h-2q-16 -38 -34 -53q-22 -20 -59 -20q-119 0 -119 267q0 254 122 254q61 0 90 -64h2v56h94v-505h-94zM265 703l-99 -135l-50 29l82 149z" />
    <glyph glyph-name="acircumflex" unicode="&#xe2;" horiz-adv-x="380" 
d="M187 76q59 0 59 177q0 176 -59 176q-45 0 -57 -73q-5 -29 -5 -103q0 -75 5 -104q12 -73 57 -73zM243 0v65h-2q-16 -38 -34 -53q-22 -20 -59 -20q-119 0 -119 267q0 254 122 254q61 0 90 -64h2v56h94v-505h-94zM192 750l123 -140l-47 -38l-78 83l-72 -83l-52 38z" />
    <glyph glyph-name="atilde" unicode="&#xe3;" horiz-adv-x="380" 
d="M187 76q59 0 59 177q0 176 -59 176q-45 0 -57 -73q-5 -29 -5 -103q0 -75 5 -104q12 -73 57 -73zM243 0v65h-2q-16 -38 -34 -53q-22 -20 -59 -20q-119 0 -119 267q0 254 122 254q61 0 90 -64h2v56h94v-505h-94zM260 717v0h56q2 -99 -74 -99q-18 0 -50.5 16t-43.5 16
q-24 0 -22 -28h-61q2 99 75 99q22 0 55.5 -16.5t45.5 -16.5q17 0 19 29z" />
    <glyph glyph-name="adieresis" unicode="&#xe4;" horiz-adv-x="380" 
d="M187 76q59 0 59 177q0 176 -59 176q-45 0 -57 -73q-5 -29 -5 -103q0 -75 5 -104q12 -73 57 -73zM243 0v65h-2q-16 -38 -34 -53q-22 -20 -59 -20q-119 0 -119 267q0 254 122 254q61 0 90 -64h2v56h94v-505h-94zM111 604q-24 0 -41 15.5t-17 39.5q0 25 16.5 41.5t41.5 16.5
q22 0 38.5 -16.5t16.5 -38.5q0 -23 -16 -40.5t-39 -17.5zM272 604q-24 0 -41 15.5t-17 39.5q0 25 16.5 41.5t41.5 16.5q22 0 38.5 -16.5t16.5 -38.5q0 -23 -16 -40.5t-39 -17.5z" />
    <glyph glyph-name="aring" unicode="&#xe5;" horiz-adv-x="380" 
d="M187 76q59 0 59 177q0 176 -59 176q-45 0 -57 -73q-5 -29 -5 -103q0 -75 5 -104q12 -73 57 -73zM243 0v65h-2q-16 -38 -34 -53q-22 -20 -59 -20q-119 0 -119 267q0 254 122 254q61 0 90 -64h2v56h94v-505h-94zM192 583q-34 0 -58.5 22.5t-24.5 56.5q0 35 23 59.5t58 24.5
t58.5 -24.5t23.5 -59.5q0 -32 -24 -55.5t-56 -23.5zM192 630q13 0 23 10t10 23q0 36 -35 36q-34 0 -34 -36q0 -33 36 -33z" />
    <glyph glyph-name="ae" unicode="&#xe6;" horiz-adv-x="561" 
d="M439 301v22q0 110 -56 110q-58 0 -58 -110v-22h114zM533 233h-209q6 -96 7 -98q12 -63 57 -63q29 0 43 29q12 22 12 54v18h89q-4 -181 -143 -181q-94 0 -123 79q-29 -79 -111 -79q-126 0 -126 157q0 177 123 177q56 0 79 -33l2 2v43q0 85 -83 85q-50 0 -96 -29v93
q49 26 103 26q90 0 118 -65q34 65 107 65q151 0 151 -247v-33zM179 252q-56 0 -56 -88q0 -97 57 -97q59 0 59 94q0 91 -60 91z" />
    <glyph glyph-name="ccedilla" unicode="&#xe7;" horiz-adv-x="278" 
d="M254 496v-95h-2q-16 24 -44 24q-83 0 -83 -168q0 -177 81 -177q22 0 48 19v-87q-34 -20 -76 -20q-149 0 -149 256q0 265 150 265q40 0 75 -17zM137 -51l66 -32l-85 -133l-43 23z" />
    <glyph glyph-name="egrave" unicode="&#xe8;" horiz-adv-x="361" 
d="M125 301h112q0 128 -57 128q-38 0 -50 -49q-5 -21 -5 -79zM333 234h-208q0 -158 59 -158t59 94h87q0 -77 -34 -124q-39 -54 -113 -54q-94 0 -130 88q-24 59 -24 169q0 264 151 264q153 0 153 -264v-15zM107 703l67 43l82 -149l-50 -29z" />
    <glyph glyph-name="eacute" unicode="&#xe9;" horiz-adv-x="361" 
d="M125 301h112q0 128 -57 128q-38 0 -50 -49q-5 -21 -5 -79zM333 234h-208q0 -158 59 -158t59 94h87q0 -77 -34 -124q-39 -54 -113 -54q-94 0 -130 88q-24 59 -24 169q0 264 151 264q153 0 153 -264v-15zM256 703l-99 -135l-50 29l82 149z" />
    <glyph glyph-name="ecircumflex" unicode="&#xea;" horiz-adv-x="361" 
d="M125 301h112q0 128 -57 128q-38 0 -50 -49q-5 -21 -5 -79zM333 234h-208q0 -158 59 -158t59 94h87q0 -77 -34 -124q-39 -54 -113 -54q-94 0 -130 88q-24 59 -24 169q0 264 151 264q153 0 153 -264v-15zM183 750l123 -140l-47 -38l-78 83l-72 -83l-52 38z" />
    <glyph glyph-name="edieresis" unicode="&#xeb;" horiz-adv-x="361" 
d="M125 301h112q0 128 -57 128q-38 0 -50 -49q-5 -21 -5 -79zM333 234h-208q0 -158 59 -158t59 94h87q0 -77 -34 -124q-39 -54 -113 -54q-94 0 -130 88q-24 59 -24 169q0 264 151 264q153 0 153 -264v-15zM102 604q-24 0 -41 15.5t-17 39.5q0 25 16.5 41.5t41.5 16.5
q22 0 38.5 -16.5t16.5 -38.5q0 -23 -16 -40.5t-39 -17.5zM263 604q-24 0 -41 15.5t-17 39.5q0 25 16.5 41.5t41.5 16.5q22 0 38.5 -16.5t16.5 -38.5q0 -23 -16 -40.5t-39 -17.5z" />
    <glyph glyph-name="igrave" unicode="&#xec;" horiz-adv-x="180" 
d="M43 505h94v-505h-94v505zM16 703l67 43l82 -149l-50 -29z" />
    <glyph glyph-name="iacute" unicode="&#xed;" horiz-adv-x="180" 
d="M43 505h94v-505h-94v505zM165 703l-99 -135l-50 29l82 149z" />
    <glyph glyph-name="icircumflex" unicode="&#xee;" horiz-adv-x="180" 
d="M43 505h94v-505h-94v505zM92 750l123 -140l-47 -38l-78 83l-72 -83l-52 38z" />
    <glyph glyph-name="idieresis" unicode="&#xef;" horiz-adv-x="180" 
d="M43 505h94v-505h-94v505zM11 604q-24 0 -41 15.5t-17 39.5q0 25 16.5 41.5t41.5 16.5q22 0 38.5 -16.5t16.5 -38.5q0 -23 -16 -40.5t-39 -17.5zM172 604q-24 0 -41 15.5t-17 39.5q0 25 16.5 41.5t41.5 16.5q22 0 38.5 -16.5t16.5 -38.5q0 -23 -16 -40.5t-39 -17.5z" />
    <glyph glyph-name="eth" unicode="&#xf0;" horiz-adv-x="375" 
d="M125 251q0 -72 5 -101q13 -72 58 -72q46 0 58 66q3 17 5 107q2 92 -13.5 136.5t-49.5 40.5q-46 0 -58 -73q-5 -29 -5 -104zM94 590l-31 50l77 36q-58 91 -92 134l75 28q40 -50 90 -126l73 38l32 -50l-76 -38q100 -162 105 -411q-9 -127 -28 -173q-35 -86 -131 -86
q-159 0 -159 259q0 244 161 244q19 0 40 -3q-18 60 -62 134z" />
    <glyph glyph-name="ntilde" unicode="&#xf1;" horiz-adv-x="388" 
d="M138 505v-58h2q34 66 102 66q67 0 89 -54q14 -34 14 -112v-347h-94v349q0 80 -56 80q-40 0 -52 -41q-5 -18 -5 -73v-315h-94v505h94zM264 717v0h56q2 -99 -74 -99q-18 0 -50.5 16t-43.5 16q-24 0 -22 -28h-61q2 99 75 99q22 0 55.5 -16.5t45.5 -16.5q17 0 19 29z" />
    <glyph glyph-name="ograve" unicode="&#xf2;" horiz-adv-x="375" 
d="M188 -8q-159 0 -159 259q0 262 159 262t159 -262q0 -259 -159 -259zM188 78q46 0 59 73q4 23 4 100q0 80 -4 103q-13 73 -59 73q-45 0 -58 -73q-5 -29 -5 -103q0 -71 5 -100q13 -73 58 -73zM114 703l67 43l82 -149l-50 -29z" />
    <glyph glyph-name="oacute" unicode="&#xf3;" horiz-adv-x="375" 
d="M188 -8q-159 0 -159 259q0 262 159 262t159 -262q0 -259 -159 -259zM188 78q46 0 59 73q4 23 4 100q0 80 -4 103q-13 73 -59 73q-45 0 -58 -73q-5 -29 -5 -103q0 -71 5 -100q13 -73 58 -73zM263 703l-99 -135l-50 29l82 149z" />
    <glyph glyph-name="ocircumflex" unicode="&#xf4;" horiz-adv-x="375" 
d="M188 -8q-159 0 -159 259q0 262 159 262t159 -262q0 -259 -159 -259zM188 78q46 0 59 73q4 23 4 100q0 80 -4 103q-13 73 -59 73q-45 0 -58 -73q-5 -29 -5 -103q0 -71 5 -100q13 -73 58 -73zM190 750l123 -140l-47 -38l-78 83l-72 -83l-52 38z" />
    <glyph glyph-name="otilde" unicode="&#xf5;" horiz-adv-x="375" 
d="M188 -8q-159 0 -159 259q0 262 159 262t159 -262q0 -259 -159 -259zM188 78q46 0 59 73q4 23 4 100q0 80 -4 103q-13 73 -59 73q-45 0 -58 -73q-5 -29 -5 -103q0 -71 5 -100q13 -73 58 -73zM258 717v0h56q2 -99 -74 -99q-18 0 -50.5 16t-43.5 16q-24 0 -22 -28h-61
q2 99 75 99q22 0 55.5 -16.5t45.5 -16.5q17 0 19 29z" />
    <glyph glyph-name="odieresis" unicode="&#xf6;" horiz-adv-x="375" 
d="M188 -8q-159 0 -159 259q0 262 159 262t159 -262q0 -259 -159 -259zM188 78q46 0 59 73q4 23 4 100q0 80 -4 103q-13 73 -59 73q-45 0 -58 -73q-5 -29 -5 -103q0 -71 5 -100q13 -73 58 -73zM109 604q-24 0 -41 15.5t-17 39.5q0 25 16.5 41.5t41.5 16.5q22 0 38.5 -16.5
t16.5 -38.5q0 -23 -16 -40.5t-39 -17.5zM270 604q-24 0 -41 15.5t-17 39.5q0 25 16.5 41.5t41.5 16.5q22 0 38.5 -16.5t16.5 -38.5q0 -23 -16 -40.5t-39 -17.5z" />
    <glyph glyph-name="divide" unicode="&#xf7;" horiz-adv-x="500" 
d="M44 221v70h413v-70h-413zM289 407h-79v100h79v-100zM289 5h-79v100h79v-100z" />
    <glyph glyph-name="oslash" unicode="&#xf8;" horiz-adv-x="375" 
d="M140 119q14 -45 51 -45q44 0 56 66q5 28 4 97l-1 72h-2zM83 33l-25 -42l-39 25l39 62q-29 64 -29 184q0 251 156 251q67 0 107 -41l32 51l40 -24l-44 -72q27 -65 27 -186q0 -249 -159 -249q-64 0 -105 41zM237 386q-14 45 -50 45q-68 0 -62 -157l3 -77h2z" />
    <glyph glyph-name="ugrave" unicode="&#xf9;" horiz-adv-x="389" 
d="M44 505h94v-316q0 -55 5 -72q11 -39 53 -39q41 0 52 36q4 14 4 70v321h94v-341q0 -84 -30 -125q-35 -47 -116 -47q-95 0 -129 53q-27 42 -27 139v321zM121 703l67 43l82 -149l-50 -29z" />
    <glyph glyph-name="uacute" unicode="&#xfa;" horiz-adv-x="389" 
d="M44 505h94v-316q0 -55 5 -72q11 -39 53 -39q41 0 52 36q4 14 4 70v321h94v-341q0 -84 -30 -125q-35 -47 -116 -47q-95 0 -129 53q-27 42 -27 139v321zM270 703l-99 -135l-50 29l82 149z" />
    <glyph glyph-name="ucircumflex" unicode="&#xfb;" horiz-adv-x="389" 
d="M44 505h94v-316q0 -55 5 -72q11 -39 53 -39q41 0 52 36q4 14 4 70v321h94v-341q0 -84 -30 -125q-35 -47 -116 -47q-95 0 -129 53q-27 42 -27 139v321zM197 750l123 -140l-47 -38l-78 83l-72 -83l-52 38z" />
    <glyph glyph-name="udieresis" unicode="&#xfc;" horiz-adv-x="389" 
d="M44 505h94v-316q0 -55 5 -72q11 -39 53 -39q41 0 52 36q4 14 4 70v321h94v-341q0 -84 -30 -125q-35 -47 -116 -47q-95 0 -129 53q-27 42 -27 139v321zM116 604q-24 0 -41 15.5t-17 39.5q0 25 16.5 41.5t41.5 16.5q22 0 38.5 -16.5t16.5 -38.5q0 -23 -16 -40.5t-39 -17.5z
M277 604q-24 0 -41 15.5t-17 39.5q0 25 16.5 41.5t41.5 16.5q22 0 38.5 -16.5t16.5 -38.5q0 -23 -16 -40.5t-39 -17.5z" />
    <glyph glyph-name="thorn" unicode="&#xfe;" horiz-adv-x="380" 
d="M193 76q39 0 53 57q9 36 9 119q0 74 -5 104q-12 73 -57 73q-59 0 -59 -177q0 -176 59 -176zM137 695v-255h2q31 73 93 73q119 0 119 -266q0 -255 -122 -255q-60 0 -90 65h-2v-264h-94v902h94z" />
    <glyph glyph-name="ydieresis" unicode="&#xff;" horiz-adv-x="373" 
d="M4 505h105l74 -352h2l85 352h95l-206 -712h-99l78 248zM108 604q-24 0 -41 15.5t-17 39.5q0 25 16.5 41.5t41.5 16.5q22 0 38.5 -16.5t16.5 -38.5q0 -23 -16 -40.5t-39 -17.5zM269 604q-24 0 -41 15.5t-17 39.5q0 25 16.5 41.5t41.5 16.5q22 0 38.5 -16.5t16.5 -38.5
q0 -23 -16 -40.5t-39 -17.5z" />
    <glyph glyph-name="dotlessi" unicode="&#x131;" horiz-adv-x="180" 
d="M43 505h94v-505h-94v505z" />
    <glyph glyph-name="Lslash" unicode="&#x141;" horiz-adv-x="331" 
d="M61 390v364h100v-296l92 60v-88l-92 -60v-283h168v-87h-268v301l-72 -48v88z" />
    <glyph glyph-name="lslash" unicode="&#x142;" horiz-adv-x="180" 
d="M43 0v390l-68 -58v76l68 54v368h94v-291l68 59v-76l-68 -57v-465h-94z" />
    <glyph glyph-name="OE" unicode="&#x152;" horiz-adv-x="598" 
d="M423 667v-236h154v-87h-154v-257h172v-87h-262v60h-2q-33 -70 -114 -70q-113 0 -153 148q-21 78 -21 235q0 166 19 241q38 150 156 150q81 0 108 -69h2v59h262v-87h-167zM149 379q0 -120 7 -168q18 -126 82 -126q65 0 82 101q7 42 7 193q0 15 1 45.5t1 45.5
q0 203 -91 203q-65 0 -83 -125q-6 -43 -6 -169z" />
    <glyph glyph-name="oe" unicode="&#x153;" horiz-adv-x="581" 
d="M342 307v-8h115q0 134 -59 134q-38 0 -50 -48q-6 -25 -6 -78zM553 234h-213l1 -6q3 -61 10 -90q15 -60 54 -60q58 0 60 93h86q-2 -79 -36 -126q-39 -54 -114 -53q-72 1 -108 80q-33 -79 -110 -80q-95 -1 -131 94q-23 60 -23 177q0 250 158 250q37 0 66 -21.5t41 -56.5h2
q25 78 105 78q152 0 152 -264v-15zM125 252q0 -174 63 -174q61 0 61 174q0 176 -61 176q-44 0 -57 -74q-6 -33 -6 -102z" />
    <glyph glyph-name="Scaron" unicode="&#x160;" horiz-adv-x="354" 
d="M294 739l-1 -101q-44 32 -85 32q-40 0 -64.5 -28t-24.5 -69q0 -51 28 -82l76 -83q59 -64 78 -99q29 -53 29 -122q0 -82 -47 -138q-49 -59 -130 -59q-65 0 -110 36v101q53 -39 99 -39q43 0 67 32q21 28 21 73q0 62 -55 121q-22 23 -101 104q-55 69 -55 153t42 136
q45 57 127 57q63 0 106 -25zM179 821l-126 139l52 39l72 -83l78 83l47 -39z" />
    <glyph glyph-name="scaron" unicode="&#x161;" horiz-adv-x="276" 
d="M234 491v-89q-30 27 -70 27q-26 0 -45 -14.5t-19 -39.5q1 -33 42 -66q68 -54 75 -61q41 -45 41 -106q0 -67 -39 -108.5t-106 -41.5q-42 0 -82 24v92q40 -32 78 -32q63 0 63 64q0 32 -45 74l-72 58q-41 43 -41 103t37.5 99t97.5 39q48 0 85 -22zM140 572l-126 139l52 39
l72 -83l78 83l47 -39z" />
    <glyph glyph-name="Ydieresis" unicode="&#x178;" horiz-adv-x="392" 
d="M2 754h108l92 -349h2l16 97l64 252h107l-140 -429v-325h-100v325zM117 853q-24 0 -41 15.5t-17 39.5q0 25 16.5 41.5t41.5 16.5q22 0 38.5 -16.5t16.5 -38.5q0 -23 -16 -40.5t-39 -17.5zM278 853q-24 0 -41 15.5t-17 39.5q0 25 16.5 41.5t41.5 16.5q22 0 38.5 -16.5
t16.5 -38.5q0 -23 -16 -40.5t-39 -17.5z" />
    <glyph glyph-name="Zcaron" unicode="&#x17d;" horiz-adv-x="393" 
d="M42 754h333l-227 -667h215v-87h-348l229 667h-202v87zM199 821l-126 139l52 39l72 -83l78 83l47 -39z" />
    <glyph glyph-name="zcaron" unicode="&#x17e;" horiz-adv-x="335" 
d="M27 505h294l-169 -421h160v-84h-298l175 421h-162v84zM170 572l-126 139l52 39l72 -83l78 83l47 -39z" />
    <glyph glyph-name="florin" unicode="&#x192;" 
d="M286 508h129l-9 -74h-131l-55 -300q-14 -75 -20 -101q-15 -62 -40 -97q-29 -42 -81.5 -63.5t-109.5 -21.5h-24l15 84h19q77 8 109 62q21 36 38 132l53 305h-65l9 74h70l21 121q17 100 56 147q48 60 141 60q33 0 60 -7l-16 -84q-18 7 -41 7q-54 0 -76 -38q-16 -28 -30 -96
z" />
    <glyph glyph-name="circumflex" unicode="&#x2c6;" horiz-adv-x="280" 
d="M142 750l123 -140l-47 -38l-78 83l-72 -83l-52 38z" />
    <glyph glyph-name="caron" unicode="&#x2c7;" horiz-adv-x="280" 
d="M142 572l-126 139l52 39l72 -83l78 83l47 -39z" />
    <glyph glyph-name="breve" unicode="&#x2d8;" horiz-adv-x="280" 
d="M-14 765h49q17 -77 106 -77q87 0 105 77h49q-6 -136 -158 -136q-145 0 -151 136z" />
    <glyph glyph-name="dotaccent" unicode="&#x2d9;" horiz-adv-x="280" 
d="M143 604q-24 0 -41.5 15.5t-17.5 39.5q0 25 16.5 41.5t41.5 16.5q22 0 38.5 -16.5t16.5 -38.5q0 -23 -15.5 -40.5t-38.5 -17.5z" />
    <glyph glyph-name="ring" unicode="&#x2da;" horiz-adv-x="280" 
d="M142 583q-34 0 -58.5 22.5t-24.5 56.5q0 35 23 59.5t58 24.5t58.5 -24.5t23.5 -59.5q0 -32 -24 -55.5t-56 -23.5zM142 630q13 0 23 10t10 23q0 36 -35 36q-34 0 -34 -36q0 -33 36 -33z" />
    <glyph glyph-name="ogonek" unicode="&#x2db;" horiz-adv-x="280" 
d="M74 13h67q-27 -42 -27 -85q0 -53 65 -48q28 -1 46 8q6 3 28 20v-79q-43 -20 -84 -20q-51 0 -85 23q-40 27 -39 75q1 44 29 106z" />
    <glyph glyph-name="tilde" unicode="&#x2dc;" horiz-adv-x="280" 
d="M210 717v0h56q2 -99 -74 -99q-18 0 -50.5 16t-43.5 16q-24 0 -22 -28h-61q2 99 75 99q22 0 55.5 -16.5t45.5 -16.5q17 0 19 29z" />
    <glyph glyph-name="hungarumlaut" unicode="&#x2dd;" horiz-adv-x="280" 
d="M73 746l67 -43l-99 -135l-50 29zM223 746l67 -43l-99 -135l-50 29z" />
    <glyph glyph-name="endash" unicode="&#x2013;" horiz-adv-x="500" 
d="M0 296h500v-74h-500v74z" />
    <glyph glyph-name="emdash" unicode="&#x2014;" horiz-adv-x="1000" 
d="M0 296h1000v-74h-1000v74z" />
    <glyph glyph-name="quoteleft" unicode="&#x2018;" horiz-adv-x="213" 
d="M108 474l-81 24l96 266l52 -15z" />
    <glyph glyph-name="quoteright" unicode="&#x2019;" horiz-adv-x="213" 
d="M105 764l81 -24l-97 -265l-51 14z" />
    <glyph glyph-name="quotesinglbase" unicode="&#x201a;" horiz-adv-x="213" 
d="M105 106l81 -25l-97 -265l-51 14z" />
    <glyph glyph-name="quotedblleft" unicode="&#x201c;" horiz-adv-x="344" 
d="M239 474l-81 24l96 266l52 -15zM102 474l-81 24l96 266l52 -15z" />
    <glyph glyph-name="quotedblright" unicode="&#x201d;" horiz-adv-x="344" 
d="M105 764l81 -24l-97 -265l-51 14zM242 764l81 -24l-97 -265l-51 14z" />
    <glyph glyph-name="quotedblbase" unicode="&#x201e;" horiz-adv-x="344" 
d="M105 106l81 -25l-97 -265l-51 14zM242 106l81 -25l-97 -265l-51 14z" />
    <glyph glyph-name="dagger" unicode="&#x2020;" horiz-adv-x="359" 
d="M133 754h94v-249h103v-82h-103v-560h-94v560h-104v82h104v249z" />
    <glyph glyph-name="daggerdbl" unicode="&#x2021;" horiz-adv-x="359" 
d="M133 754h94v-229h103v-82h-103v-184h103v-82h-103v-314h-94v314h-104v82h104v184h-104v82h104v229z" />
    <glyph glyph-name="bullet" unicode="&#x2022;" horiz-adv-x="400" 
d="M12 377q0 79 54.5 134t132.5 55q79 0 134.5 -55t55.5 -134q0 -78 -55.5 -133t-134.5 -55q-78 0 -132.5 55t-54.5 133z" />
    <glyph glyph-name="ellipsis" unicode="&#x2026;" horiz-adv-x="1000" 
d="M167 -10q-25 0 -42.5 18t-17.5 43t17.5 42t42.5 17t42.5 -17t17.5 -42t-17.5 -43t-42.5 -18zM500 -10q-25 0 -42.5 18t-17.5 43t17.5 42t42.5 17t42.5 -17t17.5 -42t-17.5 -43t-42.5 -18zM833 -10q-25 0 -42.5 18t-17.5 43t17.5 42t42.5 17t42.5 -17t17.5 -42t-17.5 -43
t-42.5 -18z" />
    <glyph glyph-name="perthousand" unicode="&#x2030;" horiz-adv-x="817" 
d="M149 405q-107 0 -107 179t107 179t107 -179t-107 -179zM149 465q40 0 40 119t-40 119t-40 -119t40 -119zM432 754h62l-374 -754h-62zM403 349q107 0 107 -179t-107 -179t-107 179t107 179zM403 51q40 0 40 119t-40 119t-40 -119t40 -119zM667 349q107 0 107 -179
t-107 -179t-107 179t107 179zM667 51q40 0 40 119t-40 119t-40 -119t40 -119z" />
    <glyph glyph-name="guilsinglleft" unicode="&#x2039;" horiz-adv-x="238" 
d="M26 260l129 222l45 -27l-115 -195l104 -199l-44 -25z" />
    <glyph glyph-name="guilsinglright" unicode="&#x203a;" horiz-adv-x="238" 
d="M212 260l-119 -224l-44 25l104 199l-115 195l45 27z" />
    <glyph glyph-name="fraction" unicode="&#x2044;" horiz-adv-x="122" 
d="M217 754h62l-374 -754h-62z" />
    <glyph glyph-name="trademark" unicode="&#x2122;" horiz-adv-x="750" 
d="M719 754v-421h-55v361h-2l-118 -361h-32l-115 361h-2v-361h-55v421h89l98 -297h2l102 297h88zM280 754v-60h-109v-361h-61v361h-110v60h280z" />
    <glyph glyph-name="fi" unicode="&#xf001;" horiz-adv-x="459" 
d="M21 505h47v163q0 81 17 117q25 53 97 53q30 0 63 -14v-98q-22 12 -39 12q-31 0 -40 -28q-4 -13 -4 -53v-152h78v-74h-78v-431h-94v431h-47v74zM402 505v-505h-94v505h94zM352 595q-26 0 -44.5 18.5t-18.5 44.5t18.5 44t44.5 18q25 0 43.5 -18.5t18.5 -43.5
q0 -26 -18 -44.5t-44 -18.5z" />
    <glyph glyph-name="fl" unicode="&#xf002;" horiz-adv-x="445" 
d="M402 830v-830h-94v830h94zM21 505h47v163q0 81 17 117q25 53 97 53q30 0 63 -14v-98q-22 12 -39 12q-31 0 -40 -28q-4 -13 -4 -53v-152h78v-74h-78v-431h-94v431h-47v74z" />
    <glyph glyph-name="HT" horiz-adv-x="205" 
 />
    <glyph glyph-name="nonmarkingreturn" horiz-adv-x="205" 
 />
    <glyph glyph-name="glyph229" horiz-adv-x="205" 
 />
  </font>
</defs>
</svg>
